<svg id="svg" version="1.1" xmlns="http://www.w3.org/2000/svg" xmlns:xlink="http://www.w3.org/1999/xlink" width="400" height="228.6" viewBox="0, 0, 400,228.6"><g id="svgg"><path id="path0" d="M279.800 82.174 C 279.800 82.270,279.373 82.406,278.850 82.476 C 276.482 82.795,273.847 85.328,273.471 87.650 C 273.404 88.063,273.270 88.400,273.174 88.400 C 273.078 88.400,273.000 88.580,273.000 88.800 C 273.000 89.020,273.080 89.200,273.178 89.200 C 273.275 89.200,273.415 89.517,273.488 89.904 C 274.111 93.227,279.570 93.496,282.317 90.339 C 285.018 87.237,284.305 82.898,281.024 82.458 C 280.571 82.397,280.200 82.269,280.200 82.174 C 280.200 82.078,280.110 82.000,280.000 82.000 C 279.890 82.000,279.800 82.078,279.800 82.174 M78.518 105.150 C 75.558 117.003,73.097 126.813,73.047 126.950 C 72.854 127.487,80.571 127.288,80.802 126.750 C 80.908 126.503,81.939 122.504,83.094 117.865 C 84.249 113.226,85.390 108.906,85.629 108.265 C 86.421 106.142,89.520 103.571,91.349 103.519 C 91.707 103.508,91.999 103.433,91.999 103.350 C 92.000 103.267,92.360 103.200,92.800 103.200 C 93.240 103.200,93.600 103.267,93.600 103.350 C 93.601 103.433,93.877 103.510,94.215 103.522 C 95.642 103.573,97.561 105.757,97.315 107.050 C 97.257 107.353,97.298 107.600,97.405 107.600 C 97.512 107.600,97.600 107.735,97.600 107.900 C 97.600 108.065,97.513 108.200,97.406 108.200 C 97.300 108.200,97.259 108.320,97.315 108.468 C 97.392 108.668,93.508 124.763,92.879 126.850 C 92.781 127.175,93.055 127.200,96.744 127.200 C 100.382 127.200,100.717 127.171,100.743 126.850 C 100.758 126.658,101.812 122.339,103.085 117.253 C 104.358 112.168,105.400 107.735,105.400 107.403 C 105.400 107.071,105.490 106.800,105.600 106.800 C 105.710 106.800,105.800 106.350,105.800 105.800 C 105.800 105.250,105.728 104.800,105.641 104.800 C 105.553 104.800,105.382 104.223,105.261 103.517 C 104.612 99.727,101.478 96.524,97.657 95.746 C 97.021 95.617,96.455 95.464,96.400 95.406 C 96.266 95.264,93.527 95.270,93.400 95.412 C 93.345 95.474,92.800 95.634,92.189 95.768 C 91.578 95.902,90.512 96.279,89.821 96.606 C 89.130 96.933,88.489 97.200,88.398 97.200 C 88.307 97.200,88.988 94.252,89.912 90.650 C 90.836 87.048,91.594 83.988,91.596 83.850 C 91.599 83.659,90.699 83.600,87.749 83.600 L 83.898 83.600 78.518 105.150 M59.800 85.419 C 59.800 85.558,59.404 85.612,58.700 85.569 C 58.095 85.531,57.577 85.545,57.550 85.600 C 57.522 85.655,56.704 85.901,55.732 86.146 C 49.524 87.711,43.682 92.654,40.867 98.724 C 40.305 99.936,39.373 103.352,36.833 113.500 C 35.016 120.760,33.455 126.730,33.364 126.767 C 32.653 127.054,34.014 127.200,37.405 127.200 C 40.995 127.200,41.404 127.166,41.565 126.850 C 41.664 126.658,42.182 124.722,42.717 122.550 L 43.690 118.600 52.045 118.600 C 57.583 118.600,60.400 118.669,60.400 118.804 C 60.400 119.377,58.503 126.520,58.318 126.642 C 57.660 127.076,58.727 127.206,62.514 127.154 L 66.500 127.100 69.843 113.800 C 71.682 106.485,73.189 100.163,73.193 99.750 C 73.197 99.338,73.290 99.000,73.400 99.000 C 73.510 99.000,73.600 98.550,73.600 98.000 C 73.600 97.450,73.510 97.000,73.400 97.000 C 73.290 97.000,73.200 96.690,73.200 96.310 C 73.200 91.211,67.276 85.622,61.850 85.603 C 61.383 85.601,61.000 85.510,61.000 85.400 C 61.000 85.290,60.730 85.200,60.400 85.200 C 60.070 85.200,59.800 85.298,59.800 85.419 M193.944 105.955 C 191.109 117.365,188.791 126.813,188.794 126.950 C 188.802 127.288,202.400 127.318,202.400 126.981 C 202.400 126.842,202.766 126.787,203.400 126.831 C 203.950 126.869,204.400 126.845,204.400 126.777 C 204.400 126.710,204.794 126.600,205.275 126.534 C 214.917 125.213,225.893 114.552,227.305 105.136 C 227.382 104.621,227.503 104.200,227.574 104.200 C 227.645 104.200,227.671 103.795,227.631 103.300 C 227.586 102.735,227.642 102.400,227.780 102.400 C 227.916 102.400,228.000 101.940,228.000 101.200 C 228.000 100.460,227.916 100.000,227.780 100.000 C 227.642 100.000,227.586 99.665,227.631 99.100 C 227.671 98.605,227.655 98.200,227.597 98.200 C 227.539 98.200,227.371 97.683,227.225 97.050 C 225.992 91.712,221.586 87.321,216.200 86.060 C 215.375 85.866,214.678 85.661,214.650 85.604 C 214.623 85.547,214.105 85.531,213.500 85.569 C 212.796 85.612,212.400 85.558,212.400 85.419 C 212.400 85.265,210.429 85.202,205.750 85.205 L 199.100 85.210 193.944 105.955 M232.744 105.955 C 229.909 117.365,227.591 126.813,227.594 126.950 C 227.604 127.401,235.707 127.301,235.742 126.850 C 235.771 126.463,237.050 121.306,237.528 119.643 L 237.832 118.587 242.916 118.643 C 245.712 118.675,248.000 118.633,248.000 118.550 C 248.000 118.468,248.256 118.400,248.568 118.400 C 255.918 118.400,265.628 109.245,267.045 100.977 C 267.175 100.220,267.343 99.600,267.419 99.600 C 267.494 99.600,267.543 98.970,267.528 98.201 C 267.513 97.431,267.433 96.801,267.350 96.801 C 267.268 96.800,267.199 96.508,267.198 96.150 C 267.182 91.964,262.847 87.033,258.250 85.973 C 257.673 85.840,257.200 85.679,257.200 85.614 C 257.200 85.550,256.795 85.529,256.300 85.569 C 255.735 85.614,255.400 85.558,255.400 85.420 C 255.400 85.263,252.887 85.201,246.650 85.205 L 237.900 85.210 232.744 105.955 M59.840 93.825 C 61.326 94.140,62.184 94.621,63.174 95.695 C 65.150 97.838,65.233 99.497,63.683 105.800 L 62.577 110.300 54.188 110.300 C 49.575 110.300,45.800 110.274,45.800 110.243 C 45.800 109.735,48.150 101.022,48.482 100.300 C 50.044 96.902,54.695 93.475,57.239 93.848 C 57.548 93.894,57.800 93.856,57.800 93.765 C 57.800 93.536,58.586 93.559,59.840 93.825 M210.600 93.781 C 210.600 93.881,210.782 93.915,211.005 93.857 C 212.103 93.570,215.078 94.940,216.592 96.430 C 222.738 102.480,217.677 114.600,207.573 118.028 C 205.400 118.764,198.815 119.188,199.037 118.576 C 199.092 118.424,200.523 112.743,202.217 105.950 L 205.297 93.600 207.948 93.600 C 209.407 93.600,210.600 93.682,210.600 93.781 M255.416 94.343 C 257.228 95.236,259.037 97.674,258.737 98.820 C 258.682 99.029,258.719 99.200,258.819 99.200 C 258.918 99.200,259.000 99.560,259.000 100.000 C 259.000 100.440,258.918 100.800,258.819 100.800 C 258.719 100.800,258.683 100.975,258.739 101.188 C 259.145 102.741,256.495 106.822,253.950 108.562 C 251.655 110.131,250.866 110.282,244.888 110.292 L 239.876 110.300 241.967 101.935 L 244.057 93.570 249.084 93.635 L 254.110 93.700 255.416 94.343 M172.200 94.842 C 172.200 94.929,171.944 95.000,171.632 95.000 C 164.265 95.000,154.783 104.295,153.682 112.595 C 153.608 113.148,153.493 113.600,153.424 113.600 C 153.220 113.599,153.544 118.834,153.802 119.700 C 155.093 124.046,159.636 127.400,164.232 127.400 C 164.764 127.400,165.200 127.490,165.200 127.600 C 165.200 127.710,165.380 127.800,165.600 127.800 C 165.820 127.800,166.000 127.710,166.000 127.600 C 166.000 127.490,166.346 127.400,166.768 127.400 C 168.809 127.400,172.502 126.015,175.600 124.088 C 177.975 122.611,177.731 122.556,178.802 124.800 C 179.991 127.290,179.920 127.200,180.705 127.200 C 181.629 127.200,181.284 128.334,185.504 111.400 C 187.574 103.095,189.343 96.270,189.435 96.233 C 189.844 96.069,189.304 95.800,188.566 95.800 C 187.843 95.800,187.612 95.937,186.428 97.071 C 185.697 97.770,184.733 98.666,184.285 99.062 L 183.470 99.783 182.740 98.909 C 181.359 97.257,178.120 95.416,175.998 95.076 C 175.559 95.006,175.200 94.893,175.200 94.824 C 175.200 94.756,174.525 94.696,173.700 94.692 C 172.875 94.687,172.200 94.755,172.200 94.842 M299.400 94.807 C 299.400 94.883,298.887 95.005,298.260 95.079 C 290.181 96.028,281.839 104.491,280.872 112.720 C 280.802 113.314,280.690 113.800,280.622 113.800 C 280.466 113.800,280.461 117.266,280.616 117.400 C 280.681 117.455,280.838 118.031,280.966 118.681 C 281.912 123.478,286.666 127.400,291.532 127.400 C 292.009 127.400,292.400 127.490,292.400 127.600 C 292.400 127.710,292.580 127.800,292.800 127.800 C 293.020 127.800,293.200 127.723,293.200 127.630 C 293.200 127.536,293.897 127.403,294.750 127.335 C 298.213 127.057,301.929 125.434,305.400 122.684 C 307.664 120.890,307.676 121.319,305.267 118.047 L 303.166 115.195 302.274 116.187 C 300.563 118.090,297.214 119.813,295.784 119.527 C 295.458 119.462,295.200 119.496,295.200 119.605 C 295.200 119.712,294.975 119.800,294.700 119.800 C 294.425 119.800,294.200 119.726,294.200 119.635 C 294.200 119.544,293.919 119.511,293.575 119.561 C 292.606 119.703,292.521 119.789,302.650 110.412 C 307.903 105.550,312.200 101.529,312.200 101.478 C 312.200 99.487,307.222 95.701,303.873 95.143 C 303.118 95.018,302.455 94.867,302.400 94.807 C 302.251 94.647,299.400 94.647,299.400 94.807 M330.600 94.857 C 330.600 94.960,330.285 95.007,329.900 94.962 C 329.515 94.917,329.200 94.932,329.200 94.996 C 329.200 95.059,328.569 95.274,327.798 95.473 C 320.229 97.422,312.647 105.949,311.870 113.384 C 311.800 114.053,311.666 114.600,311.572 114.600 C 311.477 114.600,311.400 115.095,311.400 115.700 C 311.400 116.305,311.490 116.800,311.600 116.800 C 311.710 116.800,311.800 117.065,311.800 117.390 C 311.800 121.323,315.945 125.999,320.361 127.048 C 320.932 127.184,321.400 127.341,321.400 127.397 C 321.400 127.454,321.895 127.469,322.500 127.431 C 323.204 127.388,323.600 127.442,323.600 127.581 C 323.600 127.842,324.337 127.878,324.433 127.622 C 324.470 127.524,325.220 127.412,326.100 127.372 C 326.980 127.333,327.745 127.246,327.800 127.181 C 327.855 127.116,328.542 126.869,329.328 126.632 C 332.111 125.794,335.112 124.031,337.476 121.846 C 338.621 120.787,338.749 121.230,336.368 118.015 L 334.336 115.271 333.118 116.488 C 331.261 118.343,328.316 119.793,326.957 119.521 C 326.651 119.460,326.400 119.498,326.400 119.605 C 326.400 119.712,326.220 119.800,326.000 119.800 C 325.780 119.800,325.600 119.733,325.600 119.650 C 325.600 119.567,325.218 119.498,324.750 119.495 C 322.181 119.480,319.800 116.694,319.800 113.703 C 319.800 108.782,325.741 102.130,329.494 102.848 C 329.772 102.901,330.000 102.867,330.000 102.772 C 330.000 102.678,330.135 102.600,330.300 102.600 C 330.465 102.600,330.600 102.668,330.600 102.750 C 330.600 102.833,330.983 102.909,331.450 102.919 C 333.250 102.959,335.247 104.652,335.884 106.676 L 336.225 107.761 339.712 104.956 C 341.631 103.414,343.200 102.063,343.200 101.954 C 343.200 99.488,338.136 95.502,334.453 95.069 C 333.874 95.001,333.400 94.890,333.399 94.822 C 333.399 94.755,332.769 94.693,331.999 94.685 C 331.230 94.676,330.600 94.754,330.600 94.857 M361.600 94.790 C 361.600 94.856,360.930 95.016,360.112 95.147 C 352.120 96.418,344.929 103.569,343.265 111.900 C 343.067 112.890,342.859 113.745,342.803 113.800 C 342.660 113.939,342.673 117.277,342.816 117.400 C 342.881 117.455,343.038 118.031,343.166 118.681 C 344.112 123.478,348.866 127.400,353.732 127.400 C 354.209 127.400,354.600 127.490,354.600 127.600 C 354.600 127.710,354.780 127.800,355.000 127.800 C 355.220 127.800,355.400 127.723,355.400 127.630 C 355.400 127.536,356.098 127.403,356.950 127.335 C 360.413 127.057,364.129 125.434,367.600 122.684 C 369.864 120.890,369.876 121.319,367.467 118.047 L 365.366 115.195 364.474 116.187 C 362.763 118.090,359.414 119.813,357.984 119.527 C 357.658 119.462,357.400 119.496,357.400 119.605 C 357.400 119.712,357.175 119.800,356.900 119.800 C 356.625 119.800,356.400 119.726,356.400 119.635 C 356.400 119.544,356.130 119.509,355.800 119.557 C 354.797 119.705,354.965 119.531,362.806 112.300 L 370.398 105.300 370.399 101.040 L 370.400 96.780 368.914 96.075 C 368.097 95.686,366.814 95.267,366.064 95.142 C 365.314 95.017,364.655 94.867,364.600 94.807 C 364.461 94.658,361.600 94.641,361.600 94.790 M125.200 95.400 C 125.200 95.510,124.949 95.600,124.642 95.600 C 123.319 95.600,120.437 96.668,118.461 97.891 L 117.622 98.410 116.803 97.205 C 115.727 95.620,114.374 95.399,114.017 96.750 C 113.908 97.163,112.191 104.025,110.202 112.000 C 108.212 119.975,106.537 126.658,106.479 126.850 C 106.290 127.474,113.933 127.376,114.202 126.750 C 114.308 126.503,115.479 121.948,116.804 116.628 C 119.616 105.335,119.773 104.948,122.000 103.807 C 124.274 102.642,127.496 103.772,127.129 105.607 C 127.059 105.954,127.109 106.216,127.258 106.286 C 127.435 106.370,127.439 106.429,127.271 106.510 C 127.145 106.570,127.083 106.775,127.133 106.966 C 127.183 107.156,126.104 111.787,124.736 117.256 L 122.248 127.200 126.117 127.200 L 129.985 127.200 130.183 126.450 C 130.292 126.038,131.423 121.515,132.696 116.400 C 135.319 105.861,135.212 106.200,136.285 105.033 C 138.197 102.954,140.904 102.626,142.370 104.296 C 143.460 105.538,143.462 105.527,140.635 116.851 L 138.052 127.200 141.918 127.200 L 145.785 127.200 145.984 126.450 C 147.250 121.681,151.000 106.234,151.000 105.787 C 151.000 105.464,151.090 105.200,151.200 105.200 C 151.310 105.200,151.400 104.840,151.400 104.400 C 151.400 103.960,151.323 103.600,151.228 103.600 C 151.133 103.600,151.002 103.150,150.937 102.600 C 150.521 99.084,146.761 95.600,143.382 95.600 C 143.062 95.600,142.800 95.510,142.800 95.400 C 142.800 95.290,142.395 95.200,141.900 95.200 C 141.405 95.200,141.000 95.290,141.000 95.400 C 141.000 95.510,140.701 95.600,140.336 95.600 C 138.746 95.600,135.783 96.863,134.129 98.247 L 133.157 99.060 132.629 98.380 C 131.407 96.806,129.816 95.878,127.963 95.658 C 127.433 95.596,127.000 95.467,127.000 95.372 C 127.000 95.277,126.595 95.200,126.100 95.200 C 125.605 95.200,125.200 95.290,125.200 95.400 M272.417 96.750 C 272.308 97.163,270.591 104.025,268.602 112.000 C 266.612 119.975,264.937 126.658,264.879 126.850 C 264.781 127.175,265.054 127.200,268.737 127.195 L 272.700 127.190 276.484 111.945 C 278.565 103.560,280.308 96.543,280.357 96.350 C 280.440 96.026,280.161 96.000,276.531 96.000 L 272.615 96.000 272.417 96.750 M172.200 102.795 C 172.200 102.903,172.456 102.939,172.776 102.875 C 173.975 102.635,176.274 104.204,177.121 105.839 C 177.813 107.178,178.293 110.000,177.828 110.000 C 177.733 110.000,177.697 110.218,177.748 110.484 C 178.335 113.553,171.650 120.034,168.391 119.556 C 168.071 119.509,167.763 119.567,167.705 119.685 C 167.633 119.833,167.568 119.835,167.497 119.691 C 167.440 119.575,167.103 119.515,166.747 119.557 C 164.398 119.830,161.173 116.730,161.685 114.690 C 161.755 114.410,161.720 114.200,161.604 114.200 C 161.492 114.200,161.400 114.065,161.400 113.900 C 161.400 113.735,161.484 113.600,161.587 113.600 C 161.691 113.600,161.725 113.291,161.664 112.914 C 161.003 108.844,167.309 102.124,171.108 102.850 C 171.379 102.902,171.600 102.867,171.600 102.772 C 171.600 102.678,171.735 102.600,171.900 102.600 C 172.065 102.600,172.200 102.688,172.200 102.795 M299.800 102.765 C 299.800 102.856,300.059 102.893,300.376 102.846 C 301.534 102.676,301.065 103.237,294.965 109.313 C 291.258 113.003,288.794 115.318,288.857 115.050 C 288.915 114.803,288.881 114.600,288.781 114.600 C 288.682 114.600,288.600 114.285,288.600 113.900 C 288.600 113.515,288.678 113.200,288.772 113.200 C 288.867 113.200,288.901 112.975,288.849 112.699 C 288.187 109.236,293.872 102.969,297.726 102.915 C 298.315 102.907,298.798 102.833,298.799 102.750 C 298.799 102.668,299.025 102.600,299.300 102.600 C 299.575 102.600,299.800 102.674,299.800 102.765 M362.000 102.765 C 362.000 102.856,362.259 102.893,362.576 102.846 C 363.734 102.676,363.265 103.237,357.165 109.313 C 353.458 113.003,350.994 115.318,351.057 115.050 C 351.115 114.803,351.081 114.600,350.981 114.600 C 350.882 114.600,350.800 114.285,350.800 113.900 C 350.800 113.515,350.878 113.200,350.972 113.200 C 351.067 113.200,351.101 112.975,351.049 112.699 C 350.387 109.236,356.072 102.969,359.926 102.915 C 360.515 102.907,360.998 102.833,360.999 102.750 C 360.999 102.668,361.225 102.600,361.500 102.600 C 361.775 102.600,362.000 102.674,362.000 102.765 " stroke="none" fill="#fcdc34" fill-rule="evenodd"></path><path id="path1" d="M83.935 83.415 C 84.062 83.542,85.568 83.595,87.971 83.559 C 90.922 83.513,91.783 83.556,91.711 83.744 C 91.660 83.878,91.711 84.045,91.826 84.116 C 91.953 84.195,92.008 84.061,91.967 83.772 L 91.900 83.300 87.816 83.256 C 85.058 83.226,83.798 83.278,83.935 83.415 M282.561 90.210 C 282.374 90.319,282.029 90.698,281.794 91.054 L 281.365 91.700 281.797 91.200 C 282.035 90.925,282.425 90.545,282.665 90.354 C 283.144 89.974,283.091 89.901,282.561 90.210 M45.087 92.050 L 44.500 92.700 45.150 92.113 C 45.508 91.790,45.800 91.497,45.800 91.463 C 45.800 91.308,45.635 91.444,45.087 92.050 M173.200 94.600 C 173.200 94.710,173.470 94.800,173.800 94.800 C 174.130 94.800,174.400 94.710,174.400 94.600 C 174.400 94.490,174.130 94.400,173.800 94.400 C 173.470 94.400,173.200 94.490,173.200 94.600 M300.400 94.600 C 300.400 94.710,300.670 94.800,301.000 94.800 C 301.330 94.800,301.600 94.710,301.600 94.600 C 301.600 94.490,301.330 94.400,301.000 94.400 C 300.670 94.400,300.400 94.490,300.400 94.600 M331.600 94.600 C 331.600 94.710,331.830 94.800,332.112 94.800 C 332.402 94.800,332.570 94.713,332.500 94.600 C 332.432 94.490,332.202 94.400,331.988 94.400 C 331.775 94.400,331.600 94.490,331.600 94.600 M362.600 94.600 C 362.600 94.710,362.870 94.800,363.200 94.800 C 363.530 94.800,363.800 94.710,363.800 94.600 C 363.800 94.490,363.530 94.400,363.200 94.400 C 362.870 94.400,362.600 94.490,362.600 94.600 M255.865 94.757 C 255.904 94.945,257.489 96.400,257.654 96.400 C 257.712 96.400,257.445 96.085,257.060 95.700 C 256.675 95.315,256.286 95.000,256.197 95.000 C 256.107 95.000,255.988 94.908,255.932 94.795 C 255.876 94.682,255.846 94.665,255.865 94.757 M94.300 95.200 C 94.225 95.321,94.502 95.400,95.000 95.400 C 95.498 95.400,95.775 95.321,95.700 95.200 C 95.632 95.090,95.317 95.000,95.000 95.000 C 94.683 95.000,94.368 95.090,94.300 95.200 M114.147 95.850 C 114.076 96.034,114.306 96.082,115.025 96.031 C 115.561 95.993,115.950 95.880,115.888 95.781 C 115.718 95.506,114.257 95.564,114.147 95.850 M272.547 95.850 C 272.471 96.046,273.293 96.087,276.345 96.042 C 279.090 96.001,280.322 96.052,280.519 96.216 C 280.741 96.400,280.800 96.379,280.800 96.113 C 280.800 95.928,280.716 95.828,280.614 95.891 C 280.511 95.955,280.371 95.915,280.302 95.803 C 280.106 95.486,272.669 95.531,272.547 95.850 M186.972 96.150 C 186.397 96.845,186.153 97.200,186.252 97.200 C 186.307 97.200,186.593 96.885,186.886 96.500 C 187.431 95.786,187.497 95.516,186.972 96.150 M215.806 95.929 C 215.800 96.167,217.104 97.402,217.357 97.398 C 217.436 97.397,217.209 97.166,216.853 96.886 C 216.498 96.605,216.118 96.224,216.009 96.038 C 215.901 95.852,215.809 95.803,215.806 95.929 M88.802 96.578 C 88.515 96.658,88.396 96.774,88.523 96.852 C 88.643 96.926,88.912 96.858,89.121 96.700 C 89.539 96.384,89.523 96.378,88.802 96.578 M50.887 97.250 L 50.300 97.900 50.950 97.313 C 51.556 96.765,51.692 96.600,51.537 96.600 C 51.503 96.600,51.210 96.892,50.887 97.250 M40.840 97.904 C 40.601 98.397,40.447 98.800,40.499 98.800 C 40.634 98.800,41.442 97.175,41.352 97.085 C 41.310 97.043,41.080 97.412,40.840 97.904 M182.112 98.022 C 182.620 98.645,183.400 99.324,183.400 99.143 C 183.400 99.110,182.978 98.682,182.462 98.192 C 181.638 97.408,181.596 97.388,182.112 98.022 M267.400 97.900 C 267.400 98.175,267.490 98.400,267.600 98.400 C 267.710 98.400,267.800 98.175,267.800 97.900 C 267.800 97.625,267.710 97.400,267.600 97.400 C 267.490 97.400,267.400 97.625,267.400 97.900 M340.500 97.729 C 341.518 98.632,341.893 98.896,341.501 98.431 C 341.283 98.174,340.923 97.870,340.702 97.757 C 340.481 97.644,340.390 97.631,340.500 97.729 M49.750 98.478 C 49.558 98.625,49.400 98.839,49.400 98.955 C 49.400 99.072,49.288 99.212,49.150 99.268 C 49.013 99.323,48.996 99.376,49.112 99.384 C 49.229 99.393,49.524 99.130,49.768 98.800 C 50.261 98.133,50.259 98.092,49.750 98.478 M73.306 99.859 C 73.221 100.056,73.207 100.273,73.275 100.342 C 73.478 100.545,73.642 100.260,73.549 99.866 C 73.466 99.516,73.455 99.516,73.306 99.859 M286.810 100.889 L 285.920 101.900 286.900 100.957 C 287.440 100.438,287.840 99.984,287.790 99.946 C 287.741 99.909,287.299 100.334,286.810 100.889 M349.010 100.889 L 348.120 101.900 349.100 100.957 C 349.640 100.438,350.040 99.984,349.990 99.946 C 349.941 99.909,349.499 100.334,349.010 100.889 M159.291 101.050 L 158.500 101.900 159.350 101.109 C 160.140 100.374,160.292 100.200,160.141 100.200 C 160.108 100.200,159.725 100.583,159.291 101.050 M310.400 103.400 C 310.052 103.840,309.811 104.200,309.866 104.200 C 309.921 104.200,310.252 103.840,310.600 103.400 C 310.948 102.960,311.189 102.600,311.134 102.600 C 311.079 102.600,310.748 102.960,310.400 103.400 M170.300 103.000 C 170.232 103.110,170.311 103.200,170.476 103.200 C 170.641 103.200,170.832 103.110,170.900 103.000 C 170.968 102.890,170.889 102.800,170.724 102.800 C 170.559 102.800,170.368 102.890,170.300 103.000 M298.197 105.750 L 295.900 108.100 298.250 105.803 C 299.543 104.540,300.600 103.483,300.600 103.453 C 300.600 103.309,300.330 103.567,298.197 105.750 M360.397 105.750 L 358.100 108.100 360.450 105.803 C 361.743 104.540,362.800 103.483,362.800 103.453 C 362.800 103.309,362.530 103.567,360.397 105.750 M294.458 104.160 C 293.885 104.457,293.365 104.825,293.303 104.978 C 293.215 105.196,293.251 105.206,293.471 105.024 C 293.625 104.897,294.234 104.526,294.825 104.200 C 296.168 103.459,295.870 103.427,294.458 104.160 M356.658 104.160 C 356.085 104.457,355.565 104.825,355.503 104.978 C 355.415 105.196,355.451 105.206,355.671 105.024 C 355.825 104.897,356.434 104.526,357.025 104.200 C 358.368 103.459,358.070 103.427,356.658 104.160 M218.800 104.500 C 218.800 104.665,218.890 104.800,219.000 104.800 C 219.110 104.800,219.200 104.665,219.200 104.500 C 219.200 104.335,219.110 104.200,219.000 104.200 C 218.890 104.200,218.800 104.335,218.800 104.500 M120.657 104.940 C 120.414 105.193,120.287 105.400,120.376 105.400 C 120.571 105.400,121.299 104.622,121.182 104.539 C 121.137 104.506,120.901 104.687,120.657 104.940 M165.091 105.850 L 164.300 106.700 165.150 105.909 C 165.940 105.174,166.092 105.000,165.941 105.000 C 165.908 105.000,165.525 105.383,165.091 105.850 M292.189 105.750 L 291.500 106.500 292.250 105.811 C 292.948 105.169,293.092 105.000,292.939 105.000 C 292.906 105.000,292.568 105.338,292.189 105.750 M354.389 105.750 L 353.700 106.500 354.450 105.811 C 355.148 105.169,355.292 105.000,355.139 105.000 C 355.106 105.000,354.768 105.338,354.389 105.750 M265.590 106.019 C 265.360 106.470,265.206 106.873,265.248 106.915 C 265.290 106.957,265.520 106.588,265.760 106.096 C 266.305 104.974,266.157 104.907,265.590 106.019 M323.487 106.050 L 322.900 106.700 323.550 106.113 C 324.156 105.565,324.292 105.400,324.137 105.400 C 324.103 105.400,323.810 105.692,323.487 106.050 M255.252 107.031 C 254.618 107.597,254.058 108.097,254.006 108.141 C 253.954 108.185,254.055 108.166,254.230 108.099 C 254.546 107.978,256.686 106.000,256.501 106.000 C 256.448 106.000,255.886 106.464,255.252 107.031 M305.000 108.400 C 304.652 108.840,304.411 109.200,304.466 109.200 C 304.521 109.200,304.852 108.840,305.200 108.400 C 305.548 107.960,305.789 107.600,305.734 107.600 C 305.679 107.600,305.348 107.960,305.000 108.400 M367.200 108.400 C 366.852 108.840,366.611 109.200,366.666 109.200 C 366.721 109.200,367.052 108.840,367.400 108.400 C 367.748 107.960,367.989 107.600,367.934 107.600 C 367.879 107.600,367.548 107.960,367.200 108.400 M292.389 111.702 C 290.457 113.626,288.928 115.200,288.991 115.200 C 289.053 115.200,290.677 113.625,292.600 111.700 C 294.523 109.775,296.052 108.201,295.998 108.202 C 295.944 108.202,294.320 109.777,292.389 111.702 M354.589 111.702 C 352.657 113.626,351.128 115.200,351.191 115.200 C 351.253 115.200,352.877 113.625,354.800 111.700 C 356.723 109.775,358.252 108.201,358.198 108.202 C 358.144 108.202,356.520 109.777,354.589 111.702 M217.339 109.303 C 217.156 109.686,217.048 110.000,217.098 110.000 C 217.235 110.000,217.842 108.775,217.751 108.684 C 217.707 108.641,217.522 108.919,217.339 109.303 M251.800 109.300 C 251.525 109.457,251.390 109.586,251.500 109.586 C 251.610 109.586,251.925 109.457,252.200 109.300 C 252.475 109.143,252.610 109.014,252.500 109.014 C 252.390 109.014,252.075 109.143,251.800 109.300 M248.500 110.200 C 248.432 110.310,248.511 110.400,248.676 110.400 C 248.841 110.400,249.032 110.310,249.100 110.200 C 249.168 110.090,249.089 110.000,248.924 110.000 C 248.759 110.000,248.568 110.090,248.500 110.200 M261.000 112.300 C 260.514 112.795,260.162 113.200,260.217 113.200 C 260.272 113.200,260.714 112.795,261.200 112.300 C 261.686 111.805,262.038 111.400,261.983 111.400 C 261.928 111.400,261.486 111.805,261.000 112.300 M361.800 113.400 C 361.452 113.840,361.211 114.200,361.266 114.200 C 361.321 114.200,361.652 113.840,362.000 113.400 C 362.348 112.960,362.589 112.600,362.534 112.600 C 362.479 112.600,362.148 112.960,361.800 113.400 M176.295 113.650 C 176.031 114.197,176.029 114.236,176.283 113.900 C 176.450 113.680,176.683 113.388,176.801 113.250 C 176.939 113.089,176.944 113.000,176.813 113.000 C 176.702 113.000,176.469 113.293,176.295 113.650 M319.933 113.133 C 319.723 113.344,319.778 114.400,320.000 114.400 C 320.110 114.400,320.200 114.085,320.200 113.700 C 320.200 112.981,320.164 112.903,319.933 113.133 M153.000 114.300 C 153.000 114.465,153.090 114.600,153.200 114.600 C 153.310 114.600,153.400 114.465,153.400 114.300 C 153.400 114.135,153.310 114.000,153.200 114.000 C 153.090 114.000,153.000 114.135,153.000 114.300 M213.361 114.350 C 213.009 114.760,212.745 115.200,212.851 115.200 C 212.891 115.200,213.124 114.930,213.368 114.600 C 213.850 113.948,213.846 113.786,213.361 114.350 M280.200 114.800 C 280.200 115.165,280.283 115.372,280.400 115.300 C 280.510 115.232,280.600 115.007,280.600 114.800 C 280.600 114.593,280.510 114.368,280.400 114.300 C 280.283 114.228,280.200 114.435,280.200 114.800 M342.546 114.721 C 342.466 114.801,342.400 115.005,342.400 115.173 C 342.400 115.398,342.459 115.421,342.623 115.257 C 342.745 115.135,342.811 114.931,342.768 114.805 C 342.726 114.679,342.626 114.641,342.546 114.721 M174.438 116.130 L 173.500 117.059 174.500 116.195 C 175.050 115.720,175.538 115.302,175.583 115.266 C 175.629 115.230,175.601 115.200,175.522 115.200 C 175.442 115.200,174.954 115.618,174.438 116.130 M297.000 115.800 C 296.765 116.130,296.618 116.400,296.673 116.400 C 296.728 116.400,296.965 116.130,297.200 115.800 C 297.435 115.470,297.582 115.200,297.527 115.200 C 297.472 115.200,297.235 115.470,297.000 115.800 M280.200 116.388 C 280.200 116.615,280.290 116.800,280.400 116.800 C 280.510 116.800,280.600 116.670,280.600 116.512 C 280.600 116.353,280.510 116.168,280.400 116.100 C 280.290 116.032,280.200 116.162,280.200 116.388 M342.400 116.488 C 342.400 116.770,342.490 117.000,342.600 117.000 C 342.710 117.000,342.800 116.825,342.800 116.612 C 342.800 116.398,342.710 116.168,342.600 116.100 C 342.487 116.030,342.400 116.198,342.400 116.488 M210.150 116.514 C 209.847 116.679,209.601 116.922,209.603 117.056 C 209.605 117.246,209.640 117.246,209.760 117.059 C 209.844 116.926,210.225 116.682,210.606 116.516 C 210.988 116.351,211.165 116.216,211.000 116.216 C 210.835 116.216,210.453 116.350,210.150 116.514 M162.827 117.500 C 163.647 118.401,163.778 118.401,163.059 117.500 C 162.751 117.115,162.430 116.800,162.345 116.800 C 162.260 116.800,162.477 117.115,162.827 117.500 M153.000 117.588 C 153.000 117.815,153.090 118.000,153.200 118.000 C 153.310 118.000,153.400 117.870,153.400 117.712 C 153.400 117.553,153.310 117.368,153.200 117.300 C 153.090 117.232,153.000 117.362,153.000 117.588 M293.961 118.750 C 293.609 119.160,293.345 119.600,293.451 119.600 C 293.491 119.600,293.724 119.330,293.968 119.000 C 294.450 118.348,294.446 118.186,293.961 118.750 M356.161 118.750 C 355.809 119.160,355.545 119.600,355.651 119.600 C 355.691 119.600,355.924 119.330,356.168 119.000 C 356.650 118.348,356.646 118.186,356.161 118.750 M246.300 118.800 C 246.230 118.913,246.394 119.000,246.676 119.000 C 246.951 119.000,247.232 118.910,247.300 118.800 C 247.370 118.687,247.206 118.600,246.924 118.600 C 246.649 118.600,246.368 118.690,246.300 118.800 M314.568 123.950 C 314.795 124.142,315.143 124.484,315.340 124.709 C 315.538 124.935,315.614 124.980,315.509 124.809 C 315.170 124.258,314.535 123.600,314.343 123.600 C 314.240 123.600,314.341 123.758,314.568 123.950 " stroke="none" fill="#fcf2b9" fill-rule="evenodd"></path><path id="path2" d="M282.600 82.992 C 282.600 83.091,282.808 83.335,283.063 83.535 C 283.317 83.736,283.629 84.080,283.756 84.300 C 283.884 84.520,283.991 84.591,283.994 84.457 C 283.997 84.323,283.685 83.898,283.300 83.513 C 282.915 83.128,282.600 82.894,282.600 82.992 M53.250 86.532 C 53.113 86.588,53.000 86.727,53.000 86.841 C 53.000 86.978,53.092 86.972,53.268 86.826 C 53.416 86.704,53.596 86.663,53.668 86.735 C 53.741 86.807,53.800 86.762,53.800 86.633 C 53.800 86.389,53.667 86.364,53.250 86.532 M67.194 87.023 C 67.466 87.131,67.757 87.328,67.841 87.460 C 67.959 87.646,67.995 87.645,67.997 87.457 C 68.000 87.186,67.370 86.793,66.963 86.813 C 66.818 86.820,66.922 86.914,67.194 87.023 M220.400 87.580 C 220.400 87.701,220.535 87.800,220.700 87.800 C 220.865 87.800,221.000 87.890,221.000 88.000 C 221.000 88.110,221.128 88.200,221.283 88.200 C 221.439 88.200,221.612 88.292,221.668 88.405 C 221.733 88.535,221.756 88.531,221.732 88.395 C 221.678 88.093,220.400 87.312,220.400 87.580 M69.425 88.553 C 69.675 88.912,70.109 89.345,70.390 89.515 L 70.900 89.824 70.469 89.445 C 70.232 89.237,69.798 88.804,69.505 88.484 L 68.971 87.900 69.425 88.553 M265.195 90.532 C 265.308 90.588,265.400 90.761,265.400 90.917 C 265.400 91.073,265.490 91.200,265.600 91.200 C 265.710 91.200,265.800 91.335,265.800 91.500 C 265.800 91.665,265.899 91.800,266.020 91.800 C 266.288 91.800,265.507 90.522,265.205 90.468 C 265.069 90.444,265.065 90.467,265.195 90.532 M274.675 92.026 C 274.700 92.156,274.923 92.337,275.170 92.428 C 275.456 92.534,275.576 92.523,275.498 92.397 C 275.431 92.289,275.254 92.200,275.105 92.200 C 274.956 92.200,274.788 92.108,274.732 91.995 C 274.676 91.882,274.650 91.896,274.675 92.026 M280.000 92.200 C 279.615 92.411,279.372 92.587,279.460 92.592 C 279.672 92.603,280.800 92.016,280.800 91.895 C 280.800 91.764,280.788 91.768,280.000 92.200 M226.328 94.100 C 226.790 94.890,226.800 94.901,226.800 94.655 C 226.800 94.539,226.615 94.232,226.388 93.972 L 225.976 93.500 226.328 94.100 M42.722 94.894 C 42.469 95.281,42.460 95.365,42.680 95.280 C 42.834 95.221,43.006 94.999,43.062 94.786 C 43.196 94.273,43.112 94.299,42.722 94.894 M306.000 95.633 C 306.000 95.762,306.056 95.811,306.125 95.742 C 306.193 95.673,306.595 95.793,307.017 96.009 C 308.116 96.570,308.275 96.476,307.200 95.900 C 306.167 95.347,306.000 95.310,306.000 95.633 M368.200 95.633 C 368.200 95.762,368.256 95.811,368.324 95.742 C 368.393 95.674,368.888 95.840,369.424 96.112 C 369.961 96.384,370.400 96.562,370.400 96.507 C 370.400 96.405,368.500 95.400,368.307 95.400 C 368.248 95.400,368.200 95.505,368.200 95.633 M337.505 95.757 C 337.823 96.030,338.835 96.419,338.713 96.221 C 338.651 96.121,338.310 95.938,337.955 95.814 C 337.600 95.690,337.397 95.664,337.505 95.757 M136.150 96.525 C 135.628 96.797,135.200 97.111,135.200 97.224 C 135.200 97.336,135.341 97.287,135.514 97.114 C 135.687 96.941,135.910 96.800,136.009 96.800 C 136.109 96.800,136.485 96.620,136.845 96.401 C 137.754 95.846,137.300 95.928,136.150 96.525 M41.600 96.600 C 41.455 96.871,41.453 97.000,41.593 97.000 C 41.707 97.000,41.800 96.873,41.800 96.717 C 41.800 96.561,41.913 96.388,42.050 96.332 C 42.238 96.256,42.240 96.228,42.057 96.216 C 41.923 96.207,41.718 96.380,41.600 96.600 M179.800 96.389 C 179.800 96.505,179.935 96.600,180.100 96.600 C 180.265 96.600,180.400 96.690,180.400 96.800 C 180.400 96.910,180.538 97.000,180.706 97.000 C 180.875 97.000,181.064 97.135,181.128 97.300 C 181.191 97.465,181.337 97.600,181.452 97.600 C 181.568 97.600,181.519 97.442,181.344 97.250 C 180.887 96.746,179.800 96.140,179.800 96.389 M339.000 96.593 C 339.000 96.707,339.138 96.800,339.306 96.800 C 339.475 96.800,339.664 96.935,339.728 97.100 C 339.791 97.265,339.934 97.400,340.046 97.400 C 340.310 97.400,339.842 96.836,339.366 96.582 C 339.121 96.451,339.000 96.454,339.000 96.593 M186.000 97.200 C 185.765 97.530,185.618 97.800,185.673 97.800 C 185.728 97.800,185.965 97.530,186.200 97.200 C 186.435 96.870,186.582 96.600,186.527 96.600 C 186.472 96.600,186.235 96.870,186.000 97.200 M308.517 96.872 C 308.586 97.052,308.721 97.200,308.817 97.200 C 308.913 97.200,309.365 97.605,309.821 98.100 C 310.278 98.595,310.713 99.000,310.789 99.000 C 310.932 99.000,309.336 97.307,308.736 96.822 C 308.434 96.578,308.407 96.585,308.517 96.872 M118.889 97.284 C 118.675 97.440,118.568 97.635,118.650 97.717 C 118.733 97.799,118.800 97.762,118.800 97.633 C 118.800 97.505,118.935 97.400,119.100 97.400 C 119.265 97.400,119.400 97.310,119.400 97.200 C 119.400 96.938,119.350 96.946,118.889 97.284 M290.889 97.484 C 290.675 97.640,290.568 97.835,290.650 97.917 C 290.733 97.999,290.800 97.962,290.800 97.833 C 290.800 97.705,290.935 97.600,291.100 97.600 C 291.265 97.600,291.400 97.510,291.400 97.400 C 291.400 97.138,291.350 97.146,290.889 97.484 M353.089 97.484 C 352.875 97.640,352.768 97.835,352.850 97.917 C 352.933 97.999,353.000 97.962,353.000 97.833 C 353.000 97.705,353.135 97.600,353.300 97.600 C 353.465 97.600,353.600 97.510,353.600 97.400 C 353.600 97.138,353.550 97.146,353.089 97.484 M118.010 97.790 C 117.850 97.891,117.648 97.930,117.562 97.876 C 117.475 97.823,117.465 97.937,117.539 98.130 C 117.622 98.345,117.704 98.387,117.753 98.240 C 117.797 98.108,117.961 98.000,118.117 98.000 C 118.272 98.000,118.400 97.910,118.400 97.800 C 118.400 97.558,118.378 97.557,118.010 97.790 M133.807 98.186 C 133.694 98.398,133.419 98.613,133.197 98.663 C 132.832 98.745,132.835 98.751,133.224 98.727 C 133.587 98.704,134.473 97.800,134.131 97.800 C 134.067 97.800,133.921 97.974,133.807 98.186 M320.396 98.905 C 320.257 99.072,320.201 99.267,320.271 99.338 C 320.342 99.409,320.400 99.359,320.400 99.227 C 320.400 99.095,320.603 98.906,320.850 98.806 C 321.155 98.684,321.195 98.621,320.974 98.613 C 320.795 98.606,320.535 98.737,320.396 98.905 M149.550 98.932 C 149.688 98.988,149.800 99.161,149.800 99.317 C 149.800 99.473,149.893 99.600,150.007 99.600 C 150.147 99.600,150.145 99.471,150.000 99.200 C 149.882 98.980,149.677 98.807,149.543 98.816 C 149.360 98.828,149.362 98.856,149.550 98.932 M319.265 99.850 C 319.042 100.098,318.788 100.435,318.700 100.600 C 318.532 100.918,318.578 100.875,319.388 99.950 C 319.653 99.648,319.825 99.400,319.770 99.400 C 319.715 99.400,319.487 99.603,319.265 99.850 M286.492 101.050 L 285.500 102.100 286.550 101.108 C 287.127 100.562,287.600 100.089,287.600 100.058 C 287.600 99.908,287.415 100.074,286.492 101.050 M348.692 101.050 L 347.700 102.100 348.750 101.108 C 349.328 100.562,349.800 100.089,349.800 100.058 C 349.800 99.908,349.615 100.074,348.692 101.050 M312.182 100.924 C 312.294 101.157,312.329 101.404,312.260 101.474 C 312.190 101.543,312.238 101.600,312.367 101.600 C 312.686 101.600,312.659 101.350,312.289 100.888 C 311.987 100.511,311.984 100.512,312.182 100.924 M317.400 101.827 L 316.500 102.642 317.347 102.007 C 318.084 101.454,318.557 100.987,318.362 101.006 C 318.328 101.009,317.895 101.379,317.400 101.827 M343.147 101.627 C 343.316 101.796,343.292 101.987,343.050 102.377 L 342.727 102.900 343.161 102.461 C 343.590 102.027,343.577 101.400,343.139 101.400 C 342.985 101.400,342.988 101.468,343.147 101.627 M311.087 102.734 C 310.779 103.138,310.630 103.405,310.754 103.328 C 311.010 103.170,311.876 102.000,311.737 102.000 C 311.688 102.000,311.395 102.330,311.087 102.734 M92.500 103.400 C 92.432 103.510,92.562 103.600,92.788 103.600 C 93.015 103.600,93.200 103.510,93.200 103.400 C 93.200 103.290,93.070 103.200,92.912 103.200 C 92.753 103.200,92.568 103.290,92.500 103.400 M123.800 103.400 C 123.800 103.510,123.985 103.600,124.212 103.600 C 124.438 103.600,124.568 103.510,124.500 103.400 C 124.432 103.290,124.247 103.200,124.088 103.200 C 123.930 103.200,123.800 103.290,123.800 103.400 M139.600 103.400 C 139.600 103.510,139.785 103.600,140.012 103.600 C 140.238 103.600,140.368 103.510,140.300 103.400 C 140.232 103.290,140.047 103.200,139.888 103.200 C 139.730 103.200,139.600 103.290,139.600 103.400 M125.201 103.548 C 125.202 103.632,125.494 103.878,125.851 104.095 C 126.785 104.664,126.900 104.698,126.458 104.275 C 125.949 103.787,125.200 103.354,125.201 103.548 M141.001 103.548 C 141.002 103.632,141.272 103.853,141.601 104.041 C 141.931 104.228,142.305 104.611,142.432 104.891 C 142.560 105.171,142.741 105.400,142.834 105.400 C 143.035 105.400,142.631 104.665,142.183 104.217 C 141.754 103.788,141.000 103.361,141.001 103.548 M333.265 103.557 C 333.306 103.754,335.000 105.298,335.000 105.139 C 335.000 104.963,333.784 103.800,333.601 103.800 C 333.509 103.800,333.388 103.708,333.332 103.595 C 333.276 103.482,333.246 103.465,333.265 103.557 M326.150 103.914 C 325.402 104.320,325.448 104.489,326.200 104.100 C 326.530 103.929,326.800 103.747,326.800 103.695 C 326.800 103.566,326.779 103.573,326.150 103.914 M137.600 104.000 C 137.600 104.110,137.475 104.200,137.321 104.200 C 137.168 104.200,136.991 104.335,136.927 104.501 C 136.829 104.757,136.885 104.753,137.306 104.478 C 137.745 104.190,137.971 103.800,137.700 103.800 C 137.645 103.800,137.600 103.890,137.600 104.000 M156.860 104.045 C 156.471 104.547,156.380 104.800,156.588 104.800 C 156.705 104.800,156.800 104.672,156.800 104.517 C 156.800 104.361,156.913 104.193,157.050 104.144 C 157.188 104.095,157.245 103.995,157.179 103.923 C 157.112 103.850,156.968 103.905,156.860 104.045 M308.400 105.200 C 308.052 105.640,307.811 106.000,307.866 106.000 C 307.921 106.000,308.252 105.640,308.600 105.200 C 308.948 104.760,309.189 104.400,309.134 104.400 C 309.079 104.400,308.748 104.760,308.400 105.200 M315.060 104.645 C 314.671 105.147,314.580 105.400,314.788 105.400 C 314.905 105.400,315.000 105.272,315.000 105.117 C 315.000 104.961,315.113 104.793,315.250 104.744 C 315.388 104.695,315.445 104.595,315.379 104.523 C 315.312 104.450,315.168 104.505,315.060 104.645 M292.245 105.778 C 291.775 106.261,291.420 106.687,291.457 106.724 C 291.495 106.761,291.919 106.390,292.400 105.900 C 292.881 105.410,293.236 104.984,293.188 104.954 C 293.139 104.924,292.715 105.294,292.245 105.778 M354.445 105.778 C 353.975 106.261,353.620 106.687,353.657 106.724 C 353.695 106.761,354.119 106.390,354.600 105.900 C 355.081 105.410,355.436 104.984,355.388 104.954 C 355.339 104.924,354.915 105.294,354.445 105.778 M136.050 105.332 C 135.912 105.388,135.800 105.553,135.800 105.700 C 135.800 105.847,135.688 106.012,135.550 106.068 C 135.390 106.132,135.382 106.174,135.527 106.184 C 135.652 106.193,135.901 105.975,136.082 105.700 C 136.262 105.425,136.385 105.207,136.355 105.216 C 136.325 105.224,136.188 105.277,136.050 105.332 M282.791 106.017 C 282.668 106.247,282.620 106.487,282.684 106.550 C 282.748 106.614,282.800 106.568,282.800 106.448 C 282.800 106.327,282.941 106.087,283.114 105.914 C 283.287 105.741,283.335 105.600,283.221 105.600 C 283.107 105.600,282.914 105.788,282.791 106.017 M344.991 106.017 C 344.868 106.247,344.820 106.487,344.884 106.550 C 344.948 106.614,345.000 106.568,345.000 106.448 C 345.000 106.327,345.141 106.087,345.314 105.914 C 345.487 105.741,345.535 105.600,345.421 105.600 C 345.307 105.600,345.114 105.788,344.991 106.017 M322.650 106.732 C 322.513 106.788,322.400 106.953,322.400 107.100 C 322.400 107.247,322.288 107.407,322.150 107.456 C 322.013 107.505,321.958 107.608,322.028 107.684 C 322.099 107.761,322.352 107.548,322.592 107.212 C 322.831 106.875,322.999 106.607,322.964 106.616 C 322.929 106.624,322.788 106.677,322.650 106.732 M264.800 107.283 C 264.800 107.439,264.688 107.612,264.550 107.668 C 264.362 107.744,264.360 107.772,264.543 107.784 C 264.677 107.793,264.882 107.620,265.000 107.400 C 265.145 107.129,265.147 107.000,265.007 107.000 C 264.893 107.000,264.800 107.128,264.800 107.283 M305.687 107.734 C 305.379 108.138,305.230 108.405,305.354 108.328 C 305.610 108.170,306.476 107.000,306.337 107.000 C 306.288 107.000,305.995 107.330,305.687 107.734 M367.887 107.734 C 367.579 108.138,367.430 108.405,367.554 108.328 C 367.810 108.170,368.676 107.000,368.537 107.000 C 368.488 107.000,368.195 107.330,367.887 107.734 M336.723 107.512 C 336.641 107.727,336.476 107.795,336.248 107.709 C 335.968 107.602,335.949 107.626,336.151 107.830 C 336.354 108.034,336.468 108.018,336.740 107.746 C 336.925 107.561,337.025 107.358,336.963 107.296 C 336.900 107.234,336.793 107.331,336.723 107.512 M163.261 108.000 C 163.137 108.330,163.070 108.600,163.112 108.600 C 163.155 108.600,163.329 108.330,163.500 108.000 C 163.671 107.670,163.738 107.400,163.649 107.400 C 163.560 107.400,163.386 107.670,163.261 108.000 M292.398 111.550 L 288.900 115.100 292.450 111.602 C 295.748 108.352,296.090 108.000,295.948 108.000 C 295.919 108.000,294.322 109.597,292.398 111.550 M354.598 111.550 L 351.100 115.100 354.650 111.602 C 357.948 108.352,358.290 108.000,358.148 108.000 C 358.119 108.000,356.522 109.597,354.598 111.550 M177.600 109.388 C 177.600 109.615,177.690 109.800,177.800 109.800 C 177.910 109.800,178.000 109.670,178.000 109.512 C 178.000 109.353,177.910 109.168,177.800 109.100 C 177.690 109.032,177.600 109.162,177.600 109.388 M303.000 110.200 C 302.652 110.640,302.411 111.000,302.466 111.000 C 302.521 111.000,302.852 110.640,303.200 110.200 C 303.548 109.760,303.789 109.400,303.734 109.400 C 303.679 109.400,303.348 109.760,303.000 110.200 M365.200 110.200 C 364.852 110.640,364.611 111.000,364.666 111.000 C 364.721 111.000,365.052 110.640,365.400 110.200 C 365.748 109.760,365.989 109.400,365.934 109.400 C 365.879 109.400,365.548 109.760,365.200 110.200 M300.287 112.734 C 299.979 113.138,299.830 113.405,299.954 113.328 C 300.210 113.170,301.076 112.000,300.937 112.000 C 300.888 112.000,300.595 112.330,300.287 112.734 M362.487 112.734 C 362.179 113.138,362.030 113.405,362.154 113.328 C 362.410 113.170,363.276 112.000,363.137 112.000 C 363.088 112.000,362.795 112.330,362.487 112.734 M214.340 113.647 C 213.546 114.494,213.786 114.540,214.603 113.697 C 214.974 113.314,215.193 113.011,215.089 113.024 C 214.985 113.037,214.648 113.317,214.340 113.647 M259.466 113.517 C 259.399 113.691,259.154 113.916,258.922 114.017 C 258.570 114.169,258.563 114.191,258.876 114.150 C 259.219 114.104,260.021 113.200,259.718 113.200 C 259.646 113.200,259.533 113.343,259.466 113.517 M258.167 114.535 C 257.984 114.583,257.784 114.753,257.723 114.912 C 257.633 115.147,257.704 115.141,258.106 114.878 C 258.494 114.623,258.805 114.305,258.550 114.423 C 258.522 114.436,258.350 114.486,258.167 114.535 M297.972 114.750 C 297.397 115.445,297.153 115.800,297.252 115.800 C 297.307 115.800,297.593 115.485,297.886 115.100 C 298.431 114.386,298.497 114.116,297.972 114.750 M359.800 115.200 C 359.452 115.640,359.211 116.000,359.266 116.000 C 359.321 116.000,359.652 115.640,360.000 115.200 C 360.348 114.760,360.589 114.400,360.534 114.400 C 360.479 114.400,360.148 114.760,359.800 115.200 M257.200 115.200 C 257.200 115.310,257.065 115.400,256.900 115.400 C 256.735 115.400,256.600 115.493,256.600 115.607 C 256.600 115.747,256.729 115.745,257.000 115.600 C 257.356 115.409,257.561 115.000,257.300 115.000 C 257.245 115.000,257.200 115.090,257.200 115.200 M333.772 115.412 L 333.300 115.824 333.841 115.495 C 334.139 115.314,334.490 115.232,334.622 115.314 C 334.774 115.407,334.809 115.377,334.719 115.231 C 334.516 114.903,334.311 114.942,333.772 115.412 M280.267 115.513 C 280.201 115.686,280.249 115.929,280.373 116.053 C 280.542 116.222,280.600 116.142,280.600 115.740 C 280.600 115.138,280.450 115.036,280.267 115.513 M342.467 115.513 C 342.401 115.686,342.449 115.929,342.573 116.053 C 342.742 116.222,342.800 116.142,342.800 115.740 C 342.800 115.138,342.650 115.036,342.467 115.513 M301.836 116.263 C 301.486 116.624,301.200 116.973,301.200 117.040 C 301.200 117.106,301.518 116.842,301.907 116.453 C 302.295 116.065,302.582 115.715,302.543 115.676 C 302.504 115.638,302.186 115.901,301.836 116.263 M364.036 116.263 C 363.686 116.624,363.400 116.973,363.400 117.040 C 363.400 117.106,363.718 116.842,364.107 116.453 C 364.495 116.065,364.782 115.715,364.743 115.676 C 364.704 115.638,364.386 115.901,364.036 116.263 M294.887 117.734 C 294.579 118.138,294.430 118.405,294.554 118.328 C 294.810 118.170,295.676 117.000,295.537 117.000 C 295.488 117.000,295.195 117.330,294.887 117.734 M357.087 117.734 C 356.779 118.138,356.630 118.405,356.754 118.328 C 357.010 118.170,357.876 117.000,357.737 117.000 C 357.688 117.000,357.395 117.330,357.087 117.734 M321.000 117.338 C 321.000 117.595,321.869 118.400,322.146 118.400 C 322.267 118.400,322.397 118.478,322.433 118.574 C 322.470 118.669,322.725 118.811,323.000 118.889 C 323.418 119.008,323.392 118.963,322.845 118.615 C 322.485 118.387,322.109 118.200,322.010 118.200 C 321.910 118.200,321.642 117.963,321.415 117.673 C 321.187 117.383,321.000 117.233,321.000 117.338 M331.403 117.591 C 331.130 117.801,330.972 118.039,331.053 118.120 C 331.134 118.201,331.200 118.162,331.200 118.033 C 331.200 117.905,331.325 117.800,331.479 117.800 C 331.632 117.800,331.809 117.665,331.872 117.500 C 332.016 117.125,332.007 117.127,331.403 117.591 M330.050 118.398 C 329.693 118.616,329.400 118.837,329.400 118.890 C 329.400 118.943,329.715 118.801,330.100 118.573 C 330.485 118.346,330.800 118.124,330.800 118.080 C 330.800 117.952,330.737 117.979,330.050 118.398 M199.088 118.378 C 199.046 118.421,199.059 118.533,199.117 118.628 C 199.262 118.862,203.547 118.848,203.692 118.612 C 203.802 118.434,199.261 118.203,199.088 118.378 M43.800 118.800 C 43.800 118.930,46.595 119.000,51.784 119.000 C 56.175 119.000,59.932 119.053,60.134 119.119 C 60.409 119.208,60.432 119.190,60.227 119.043 C 59.997 118.879,59.997 118.832,60.227 118.740 C 60.377 118.680,56.742 118.624,52.150 118.616 C 46.706 118.605,43.800 118.670,43.800 118.800 M237.889 118.783 C 237.952 118.884,237.911 118.996,237.799 119.033 C 237.687 119.070,239.509 119.073,241.848 119.039 C 244.187 119.005,246.186 118.893,246.290 118.789 C 246.409 118.670,244.860 118.600,242.128 118.600 C 239.549 118.600,237.822 118.675,237.889 118.783 M337.538 119.386 C 337.594 119.599,337.766 119.821,337.920 119.880 C 338.140 119.965,338.131 119.881,337.878 119.494 C 337.488 118.899,337.404 118.873,337.538 119.386 M307.209 120.524 C 307.352 120.899,307.339 121.142,307.165 121.374 C 306.943 121.672,306.952 121.673,307.269 121.385 C 307.590 121.093,307.464 120.000,307.110 120.000 C 307.055 120.000,307.100 120.236,307.209 120.524 M369.409 120.524 C 369.552 120.899,369.539 121.142,369.365 121.374 C 369.143 121.672,369.152 121.673,369.469 121.385 C 369.790 121.093,369.664 120.000,369.310 120.000 C 369.255 120.000,369.300 120.236,369.409 120.524 M154.000 121.077 C 154.000 121.291,154.595 122.400,154.710 122.400 C 154.765 122.400,154.662 122.108,154.480 121.750 C 154.108 121.020,154.000 120.868,154.000 121.077 M313.028 121.800 C 313.003 122.197,313.732 123.135,313.920 122.947 C 314.001 122.866,313.962 122.800,313.833 122.800 C 313.705 122.800,313.600 122.665,313.600 122.500 C 313.600 122.335,313.517 122.200,313.415 122.200 C 313.313 122.200,313.188 122.043,313.138 121.850 C 313.073 121.603,313.041 121.588,313.028 121.800 M282.000 122.200 C 282.118 122.420,282.323 122.593,282.457 122.584 C 282.640 122.572,282.638 122.544,282.450 122.468 C 282.313 122.412,282.200 122.239,282.200 122.083 C 282.200 121.928,282.107 121.800,281.993 121.800 C 281.853 121.800,281.855 121.929,282.000 122.200 M344.200 122.200 C 344.318 122.420,344.523 122.593,344.657 122.584 C 344.840 122.572,344.838 122.544,344.650 122.468 C 344.513 122.412,344.400 122.239,344.400 122.083 C 344.400 121.928,344.307 121.800,344.193 121.800 C 344.053 121.800,344.055 121.929,344.200 122.200 M304.472 123.500 C 304.409 123.665,304.232 123.800,304.079 123.800 C 303.925 123.800,303.800 123.890,303.800 124.000 C 303.800 124.110,303.665 124.200,303.500 124.200 C 303.335 124.200,303.200 124.290,303.200 124.400 C 303.200 124.510,303.065 124.600,302.900 124.600 C 302.735 124.600,302.600 124.695,302.600 124.811 C 302.600 124.928,302.878 124.860,303.217 124.661 C 304.059 124.168,305.128 123.200,304.830 123.200 C 304.696 123.200,304.536 123.335,304.472 123.500 M366.672 123.500 C 366.609 123.665,366.432 123.800,366.279 123.800 C 366.125 123.800,366.000 123.890,366.000 124.000 C 366.000 124.110,365.865 124.200,365.700 124.200 C 365.535 124.200,365.400 124.290,365.400 124.400 C 365.400 124.510,365.265 124.600,365.100 124.600 C 364.935 124.600,364.800 124.695,364.800 124.811 C 364.800 124.928,365.078 124.860,365.417 124.661 C 366.259 124.168,367.328 123.200,367.030 123.200 C 366.896 123.200,366.736 123.335,366.672 123.500 M175.600 124.200 C 175.600 124.310,175.465 124.400,175.300 124.400 C 175.135 124.400,175.000 124.493,175.000 124.607 C 175.000 124.747,175.129 124.745,175.400 124.600 C 175.756 124.409,175.961 124.000,175.700 124.000 C 175.645 124.000,175.600 124.090,175.600 124.200 M334.000 124.600 C 334.000 124.710,333.865 124.800,333.700 124.800 C 333.535 124.800,333.400 124.893,333.400 125.007 C 333.400 125.147,333.529 125.145,333.800 125.000 C 334.156 124.809,334.361 124.400,334.100 124.400 C 334.045 124.400,334.000 124.490,334.000 124.600 M174.150 125.060 C 173.847 125.179,173.600 125.352,173.600 125.444 C 173.600 125.535,173.870 125.471,174.200 125.300 C 174.645 125.070,175.104 124.671,174.750 124.821 C 174.722 124.833,174.453 124.940,174.150 125.060 M284.816 125.127 C 284.795 125.430,285.761 126.051,286.062 125.928 C 286.193 125.875,286.143 125.824,285.950 125.816 C 285.757 125.807,285.600 125.710,285.600 125.600 C 285.600 125.490,285.473 125.400,285.317 125.400 C 285.161 125.400,284.988 125.288,284.932 125.150 C 284.868 124.990,284.826 124.982,284.816 125.127 M347.016 125.127 C 346.995 125.430,347.961 126.051,348.262 125.928 C 348.393 125.875,348.343 125.824,348.150 125.816 C 347.957 125.807,347.800 125.710,347.800 125.600 C 347.800 125.490,347.673 125.400,347.517 125.400 C 347.361 125.400,347.188 125.288,347.132 125.150 C 347.068 124.990,347.026 124.982,347.016 125.127 M178.801 125.517 C 178.802 125.741,179.557 127.000,179.690 127.000 C 179.743 127.000,179.593 126.663,179.357 126.250 C 178.828 125.326,178.800 125.289,178.801 125.517 M300.800 125.800 C 300.415 126.011,300.172 126.187,300.260 126.192 C 300.472 126.203,301.600 125.616,301.600 125.495 C 301.600 125.364,301.588 125.368,300.800 125.800 M363.000 125.800 C 362.615 126.011,362.372 126.187,362.460 126.192 C 362.672 126.203,363.800 125.616,363.800 125.495 C 363.800 125.364,363.788 125.368,363.000 125.800 M172.300 126.014 C 171.970 126.225,171.803 126.398,171.928 126.399 C 172.053 126.400,172.368 126.223,172.628 126.007 C 173.222 125.511,173.079 125.514,172.300 126.014 M158.200 125.892 C 158.200 125.995,159.700 126.800,159.892 126.800 C 159.951 126.800,160.000 126.695,160.000 126.567 C 160.000 126.438,159.944 126.389,159.875 126.458 C 159.807 126.527,159.402 126.405,158.975 126.187 C 158.549 125.970,158.200 125.837,158.200 125.892 M202.900 127.000 C 202.832 127.110,202.911 127.200,203.076 127.200 C 203.241 127.200,203.432 127.110,203.500 127.000 C 203.568 126.890,203.489 126.800,203.324 126.800 C 203.159 126.800,202.968 126.890,202.900 127.000 M294.000 127.600 C 294.000 127.710,294.130 127.800,294.288 127.800 C 294.447 127.800,294.632 127.710,294.700 127.600 C 294.768 127.490,294.638 127.400,294.412 127.400 C 294.185 127.400,294.000 127.490,294.000 127.600 M325.200 127.600 C 325.200 127.710,325.330 127.800,325.488 127.800 C 325.647 127.800,325.832 127.710,325.900 127.600 C 325.968 127.490,325.838 127.400,325.612 127.400 C 325.385 127.400,325.200 127.490,325.200 127.600 M356.200 127.600 C 356.200 127.710,356.330 127.800,356.488 127.800 C 356.647 127.800,356.832 127.710,356.900 127.600 C 356.968 127.490,356.838 127.400,356.612 127.400 C 356.385 127.400,356.200 127.490,356.200 127.600 " stroke="none" fill="#fce87e" fill-rule="evenodd"></path><path id="path3" d="M58.800 85.400 C 58.800 85.510,59.025 85.600,59.300 85.600 C 59.575 85.600,59.800 85.510,59.800 85.400 C 59.800 85.290,59.575 85.200,59.300 85.200 C 59.025 85.200,58.800 85.290,58.800 85.400 M61.000 85.400 C 61.000 85.510,61.230 85.600,61.512 85.600 C 61.802 85.600,61.970 85.513,61.900 85.400 C 61.832 85.290,61.602 85.200,61.388 85.200 C 61.175 85.200,61.000 85.290,61.000 85.400 M212.400 85.400 C 212.400 85.510,212.580 85.600,212.800 85.600 C 213.020 85.600,213.200 85.510,213.200 85.400 C 213.200 85.290,213.020 85.200,212.800 85.200 C 212.580 85.200,212.400 85.290,212.400 85.400 M284.000 86.300 C 284.000 86.465,284.090 86.600,284.200 86.600 C 284.310 86.600,284.400 86.465,284.400 86.300 C 284.400 86.135,284.310 86.000,284.200 86.000 C 284.090 86.000,284.000 86.135,284.000 86.300 M263.530 88.706 C 263.594 88.874,263.839 89.111,264.074 89.233 C 264.466 89.437,264.461 89.412,264.015 88.927 C 263.457 88.321,263.366 88.279,263.530 88.706 M222.916 89.470 C 222.973 89.618,223.308 89.946,223.660 90.199 L 224.300 90.659 223.611 89.929 C 222.855 89.129,222.762 89.068,222.916 89.470 M273.600 90.975 C 273.600 91.060,273.825 91.342,274.100 91.600 C 274.375 91.858,274.600 91.997,274.600 91.908 C 274.600 91.819,274.375 91.537,274.100 91.282 C 273.825 91.028,273.600 90.889,273.600 90.975 M277.000 92.800 C 277.000 92.910,277.130 93.000,277.288 93.000 C 277.447 93.000,277.632 92.910,277.700 92.800 C 277.768 92.690,277.638 92.600,277.412 92.600 C 277.185 92.600,277.000 92.690,277.000 92.800 M57.800 93.800 C 57.800 93.910,58.165 94.000,58.612 94.000 C 59.102 94.000,59.375 93.921,59.300 93.800 C 59.232 93.690,58.867 93.600,58.488 93.600 C 58.110 93.600,57.800 93.690,57.800 93.800 M205.400 93.800 C 205.804 94.061,210.600 94.061,210.600 93.800 C 210.600 93.676,209.552 93.601,207.850 93.603 C 206.001 93.605,205.198 93.670,205.400 93.800 M244.200 93.800 C 244.612 94.066,253.664 94.066,253.500 93.800 C 253.423 93.676,251.585 93.601,248.638 93.603 C 245.505 93.605,244.002 93.672,244.200 93.800 M333.400 94.800 C 333.400 94.910,333.535 95.000,333.700 95.000 C 333.865 95.000,334.000 94.910,334.000 94.800 C 334.000 94.690,333.865 94.600,333.700 94.600 C 333.535 94.600,333.400 94.690,333.400 94.800 M185.337 97.761 C 184.812 98.309,184.611 98.740,184.991 98.506 C 185.206 98.373,186.069 97.200,185.951 97.200 C 185.909 97.200,185.633 97.452,185.337 97.761 M310.000 98.100 C 310.373 98.485,310.723 98.800,310.778 98.800 C 310.833 98.800,310.573 98.485,310.200 98.100 C 309.827 97.715,309.477 97.400,309.422 97.400 C 309.367 97.400,309.627 97.715,310.000 98.100 M258.600 100.000 C 258.600 100.440,258.690 100.800,258.800 100.800 C 258.910 100.800,259.000 100.440,259.000 100.000 C 259.000 99.560,258.910 99.200,258.800 99.200 C 258.690 99.200,258.600 99.560,258.600 100.000 M227.600 99.700 C 227.600 99.865,227.690 100.000,227.800 100.000 C 227.910 100.000,228.000 99.865,228.000 99.700 C 228.000 99.535,227.910 99.400,227.800 99.400 C 227.690 99.400,227.600 99.535,227.600 99.700 M317.989 101.136 L 317.300 101.872 317.936 101.386 C 318.467 100.981,318.936 100.400,318.733 100.400 C 318.703 100.400,318.368 100.731,317.989 101.136 M311.694 102.150 L 311.342 102.700 311.871 102.215 C 312.443 101.691,312.495 101.600,312.223 101.600 C 312.126 101.600,311.888 101.848,311.694 102.150 M171.600 102.800 C 171.600 102.910,171.735 103.000,171.900 103.000 C 172.065 103.000,172.200 102.910,172.200 102.800 C 172.200 102.690,172.065 102.600,171.900 102.600 C 171.735 102.600,171.600 102.690,171.600 102.800 M298.800 102.800 C 298.800 102.910,299.025 103.000,299.300 103.000 C 299.575 103.000,299.800 102.910,299.800 102.800 C 299.800 102.690,299.575 102.600,299.300 102.600 C 299.025 102.600,298.800 102.690,298.800 102.800 M330.000 102.800 C 330.000 102.910,330.135 103.000,330.300 103.000 C 330.465 103.000,330.600 102.910,330.600 102.800 C 330.600 102.690,330.465 102.600,330.300 102.600 C 330.135 102.600,330.000 102.690,330.000 102.800 M361.000 102.800 C 361.000 102.910,361.225 103.000,361.500 103.000 C 361.775 103.000,362.000 102.910,362.000 102.800 C 362.000 102.690,361.775 102.600,361.500 102.600 C 361.225 102.600,361.000 102.690,361.000 102.800 M309.087 104.550 C 308.628 105.164,308.609 105.228,308.982 104.902 C 309.416 104.523,309.907 103.800,309.731 103.800 C 309.685 103.800,309.395 104.138,309.087 104.550 M96.044 104.713 C 96.343 105.024,96.634 105.232,96.691 105.175 C 96.748 105.118,96.504 104.864,96.148 104.610 L 95.500 104.148 96.044 104.713 M142.800 106.300 C 142.800 106.731,142.881 106.974,143.000 106.900 C 143.110 106.832,143.200 106.562,143.200 106.300 C 143.200 106.038,143.110 105.768,143.000 105.700 C 142.881 105.626,142.800 105.869,142.800 106.300 M306.773 106.549 C 306.061 107.408,305.980 107.647,306.602 107.056 C 306.975 106.702,307.231 106.364,307.172 106.305 C 307.113 106.246,306.933 106.356,306.773 106.549 M368.580 107.050 L 368.132 107.700 368.766 107.113 C 369.450 106.479,369.499 106.400,369.214 106.400 C 369.111 106.400,368.826 106.692,368.580 107.050 M97.200 107.900 C 97.200 108.065,97.290 108.200,97.400 108.200 C 97.510 108.200,97.600 108.065,97.600 107.900 C 97.600 107.735,97.510 107.600,97.400 107.600 C 97.290 107.600,97.200 107.735,97.200 107.900 M177.600 108.476 C 177.600 108.751,177.690 109.032,177.800 109.100 C 177.913 109.170,178.000 109.006,178.000 108.724 C 178.000 108.449,177.910 108.168,177.800 108.100 C 177.687 108.030,177.600 108.194,177.600 108.476 M303.687 109.550 C 303.228 110.164,303.209 110.228,303.582 109.902 C 304.016 109.523,304.507 108.800,304.331 108.800 C 304.285 108.800,303.995 109.138,303.687 109.550 M365.887 109.550 C 365.428 110.164,365.409 110.228,365.782 109.902 C 366.216 109.523,366.707 108.800,366.531 108.800 C 366.485 108.800,366.195 109.138,365.887 109.550 M301.373 111.549 C 300.661 112.408,300.580 112.647,301.202 112.056 C 301.575 111.702,301.831 111.364,301.772 111.305 C 301.713 111.246,301.533 111.356,301.373 111.549 M363.573 111.549 C 362.861 112.408,362.780 112.647,363.402 112.056 C 363.775 111.702,364.031 111.364,363.972 111.305 C 363.913 111.246,363.733 111.356,363.573 111.549 M288.600 113.900 C 288.600 114.285,288.690 114.600,288.800 114.600 C 288.910 114.600,289.000 114.285,289.000 113.900 C 289.000 113.515,288.910 113.200,288.800 113.200 C 288.690 113.200,288.600 113.515,288.600 113.900 M350.800 113.900 C 350.800 114.285,350.890 114.600,351.000 114.600 C 351.110 114.600,351.200 114.285,351.200 113.900 C 351.200 113.515,351.110 113.200,351.000 113.200 C 350.890 113.200,350.800 113.515,350.800 113.900 M161.400 113.900 C 161.400 114.065,161.490 114.200,161.600 114.200 C 161.710 114.200,161.800 114.065,161.800 113.900 C 161.800 113.735,161.710 113.600,161.600 113.600 C 161.490 113.600,161.400 113.735,161.400 113.900 M298.287 114.550 C 297.828 115.164,297.809 115.228,298.182 114.902 C 298.616 114.523,299.107 113.800,298.931 113.800 C 298.885 113.800,298.595 114.138,298.287 114.550 M360.487 114.550 C 360.028 115.164,360.009 115.228,360.382 114.902 C 360.816 114.523,361.307 113.800,361.131 113.800 C 361.085 113.800,360.795 114.138,360.487 114.550 M153.000 115.900 C 153.000 116.395,153.090 116.800,153.200 116.800 C 153.310 116.800,153.400 116.395,153.400 115.900 C 153.400 115.405,153.310 115.000,153.200 115.000 C 153.090 115.000,153.000 115.405,153.000 115.900 M174.389 116.550 L 173.700 117.300 174.450 116.611 C 175.148 115.969,175.292 115.800,175.139 115.800 C 175.106 115.800,174.768 116.138,174.389 116.550 M333.065 116.250 C 332.325 117.072,332.329 117.311,333.070 116.611 C 333.471 116.232,333.800 115.894,333.800 115.861 C 333.800 115.659,333.411 115.865,333.065 116.250 M295.973 116.549 C 295.261 117.408,295.180 117.647,295.802 117.056 C 296.175 116.702,296.431 116.364,296.372 116.305 C 296.313 116.246,296.133 116.356,295.973 116.549 M358.173 116.549 C 357.461 117.408,357.380 117.647,358.002 117.056 C 358.375 116.702,358.631 116.364,358.572 116.305 C 358.513 116.246,358.333 116.356,358.173 116.549 M221.000 117.418 C 220.615 117.752,220.481 117.938,220.702 117.831 C 221.067 117.655,221.974 116.793,221.781 116.805 C 221.736 116.808,221.385 117.084,221.000 117.418 M203.700 118.600 C 203.630 118.713,203.794 118.800,204.076 118.800 C 204.351 118.800,204.632 118.710,204.700 118.600 C 204.770 118.487,204.606 118.400,204.324 118.400 C 204.049 118.400,203.768 118.490,203.700 118.600 M293.200 119.100 C 293.059 119.270,292.988 119.455,293.043 119.510 C 293.098 119.565,293.259 119.470,293.400 119.300 C 293.541 119.130,293.612 118.945,293.557 118.890 C 293.502 118.835,293.341 118.930,293.200 119.100 M355.400 119.100 C 355.259 119.270,355.188 119.455,355.243 119.510 C 355.298 119.565,355.459 119.470,355.600 119.300 C 355.741 119.130,355.812 118.945,355.757 118.890 C 355.702 118.835,355.541 118.930,355.400 119.100 M218.578 119.850 C 218.343 120.298,218.344 120.298,218.771 119.919 C 219.248 119.496,219.291 119.400,219.007 119.400 C 218.901 119.400,218.708 119.603,218.578 119.850 M294.200 119.600 C 294.200 119.710,294.425 119.800,294.700 119.800 C 294.975 119.800,295.200 119.710,295.200 119.600 C 295.200 119.490,294.975 119.400,294.700 119.400 C 294.425 119.400,294.200 119.490,294.200 119.600 M325.600 119.600 C 325.600 119.710,325.780 119.800,326.000 119.800 C 326.220 119.800,326.400 119.710,326.400 119.600 C 326.400 119.490,326.220 119.400,326.000 119.400 C 325.780 119.400,325.600 119.490,325.600 119.600 M356.400 119.600 C 356.400 119.710,356.625 119.800,356.900 119.800 C 357.175 119.800,357.400 119.710,357.400 119.600 C 357.400 119.490,357.175 119.400,356.900 119.400 C 356.625 119.400,356.400 119.490,356.400 119.600 M337.665 121.650 C 337.043 122.340,336.863 122.760,337.384 122.302 C 337.803 121.934,338.308 121.200,338.142 121.200 C 338.102 121.200,337.887 121.403,337.665 121.650 M156.085 124.172 C 156.407 124.515,156.713 124.754,156.764 124.703 C 156.900 124.567,156.399 124.012,155.916 123.763 C 155.601 123.600,155.642 123.699,156.085 124.172 M164.100 127.600 C 164.168 127.710,164.443 127.800,164.712 127.800 C 164.980 127.800,165.200 127.710,165.200 127.600 C 165.200 127.490,164.925 127.400,164.588 127.400 C 164.231 127.400,164.028 127.483,164.100 127.600 M166.000 127.600 C 166.000 127.710,166.130 127.800,166.288 127.800 C 166.447 127.800,166.632 127.710,166.700 127.600 C 166.768 127.490,166.638 127.400,166.412 127.400 C 166.185 127.400,166.000 127.490,166.000 127.600 M291.400 127.600 C 291.400 127.710,291.625 127.800,291.900 127.800 C 292.175 127.800,292.400 127.710,292.400 127.600 C 292.400 127.490,292.175 127.400,291.900 127.400 C 291.625 127.400,291.400 127.490,291.400 127.600 M293.200 127.600 C 293.200 127.710,293.380 127.800,293.600 127.800 C 293.820 127.800,294.000 127.710,294.000 127.600 C 294.000 127.490,293.820 127.400,293.600 127.400 C 293.380 127.400,293.200 127.490,293.200 127.600 M322.600 127.600 C 322.600 127.710,322.825 127.800,323.100 127.800 C 323.375 127.800,323.600 127.710,323.600 127.600 C 323.600 127.490,323.375 127.400,323.100 127.400 C 322.825 127.400,322.600 127.490,322.600 127.600 M324.400 127.600 C 324.400 127.710,324.580 127.800,324.800 127.800 C 325.020 127.800,325.200 127.710,325.200 127.600 C 325.200 127.490,325.020 127.400,324.800 127.400 C 324.580 127.400,324.400 127.490,324.400 127.600 M353.600 127.600 C 353.600 127.710,353.825 127.800,354.100 127.800 C 354.375 127.800,354.600 127.710,354.600 127.600 C 354.600 127.490,354.375 127.400,354.100 127.400 C 353.825 127.400,353.600 127.490,353.600 127.600 M355.400 127.600 C 355.400 127.710,355.580 127.800,355.800 127.800 C 356.020 127.800,356.200 127.710,356.200 127.600 C 356.200 127.490,356.020 127.400,355.800 127.400 C 355.580 127.400,355.400 127.490,355.400 127.600 " stroke="none" fill="#fce460" fill-rule="evenodd"></path><path id="path4" d="M45.287 92.050 L 44.700 92.700 45.350 92.113 C 45.708 91.790,46.000 91.497,46.000 91.463 C 46.000 91.308,45.835 91.444,45.287 92.050 M50.789 97.150 L 50.100 97.900 50.850 97.211 C 51.263 96.832,51.600 96.494,51.600 96.461 C 51.600 96.308,51.431 96.452,50.789 97.150 M159.491 101.050 L 158.700 101.900 159.550 101.109 C 160.340 100.374,160.492 100.200,160.341 100.200 C 160.308 100.200,159.925 100.583,159.491 101.050 M298.397 105.750 L 295.900 108.300 298.450 105.803 C 300.819 103.484,301.091 103.200,300.947 103.200 C 300.918 103.200,299.770 104.347,298.397 105.750 M360.597 105.750 L 358.100 108.300 360.650 105.803 C 362.053 104.430,363.200 103.282,363.200 103.253 C 363.200 103.109,362.916 103.381,360.597 105.750 M165.287 105.450 L 164.700 106.100 165.350 105.513 C 165.708 105.190,166.000 104.897,166.000 104.863 C 166.000 104.708,165.835 104.844,165.287 105.450 M323.389 105.950 L 322.700 106.700 323.450 106.011 C 324.148 105.369,324.292 105.200,324.139 105.200 C 324.106 105.200,323.768 105.538,323.389 105.950 M255.389 107.150 L 254.700 107.900 255.450 107.211 C 256.148 106.569,256.292 106.400,256.139 106.400 C 256.106 106.400,255.768 106.738,255.389 107.150 M261.000 112.100 C 260.514 112.595,260.162 113.000,260.217 113.000 C 260.272 113.000,260.714 112.595,261.200 112.100 C 261.686 111.605,262.038 111.200,261.983 111.200 C 261.928 111.200,261.486 111.605,261.000 112.100 M174.291 116.450 L 173.500 117.300 174.350 116.509 C 175.140 115.774,175.292 115.600,175.141 115.600 C 175.108 115.600,174.725 115.983,174.291 116.450 " stroke="none" fill="#fcfce7" fill-rule="evenodd"></path></g></svg>